<svg xmlns="http://www.w3.org/2000/svg" width="95.644" height="57.333"><g data-paper-data="{&quot;isPaintingLayer&quot;:true}" stroke-width="0" stroke-miterlimit="10" style="mix-blend-mode:normal"><path d="M11 37.833v-4.75h7.25v4.75z" fill="#999"/><path d="M5.625 35.083v-4h12.5v4z" fill="#999"/><path d="M3 33.083v-7.5h5.25v7.5z" fill="#999"/><path d="M0 31.958v-5.75h3.125v5.75zM2.75 26.208v-3h5.375v3zM8.125 31.958v-5.75h3v5.75z"/><path d="M8.125 31.958v-3.375h11v3.375zM11.5 40.333v-2.75h8.375v2.75zM5.5 37.583v-3h6.125v3z"/><path d="M2.875 34.833v-3.125h2.75v3.125z"/><path d="M0 31.958v-5.875h3v5.875z"/><path d="M59.57 55.12v-4.556h6.221v4.556z" data-paper-data="{&quot;index&quot;:null}" fill="#999"/><path d="M65.57 56.898v-8.112h2.444v8.112z" data-paper-data="{&quot;index&quot;:null}"/><path d="M59.57 57.23v-2.444h8.444v2.445zM56.791 54.786v-6.11h2.667v6.11z" data-paper-data="{&quot;index&quot;:null}"/><path d="M73.694 55.12v-4.556h6.222v4.556z" data-paper-data="{&quot;index&quot;:null}" fill="#999"/><path d="M79.694 56.898v-8.112h2.445v8.112z" data-paper-data="{&quot;index&quot;:null}"/><path d="M73.694 57.23v-2.444h8.445v2.445zM70.916 54.786v-6.11h2.667v6.11z" data-paper-data="{&quot;index&quot;:null}"/><path d="M31.194 55.12v-4.556h6.222v4.556z" data-paper-data="{&quot;index&quot;:null}" fill="#999"/><path d="M37.194 56.898v-8.112h2.445v8.112z" data-paper-data="{&quot;index&quot;:null}"/><path d="M31.194 57.23v-2.444h8.445v2.445zM28.416 54.786v-6.11h2.667v6.11z" data-paper-data="{&quot;index&quot;:null}"/><path d="M16.625 54.833v-6.625h6.25v6.625z" fill="#999"/><path d="M22.45 49.04l-.417-3.916h49.583v3.917z" fill="#fc9"/><path d="M19.774 48.572v-2.858h2.571v2.858z"/><path d="M18.7 44.457v-5.083h2.583l-1 5.917z" fill="#fc9"/><path d="M19.783 46.04l.166-6.75h54.334v6.75zM22.06 12.571l.25-10.285h49.178l.571 10.285z" fill="#fc9"/><path d="M19.63 12.286V5.429h54.572v6.857z" fill="#fc9"/><path d="M18.202 40.143V6.57h56.715v33.572z" fill="#fc9"/><path d="M16.917 45.572V5.857h2.714v39.715zM22.405 52v-3.286H71.63V52zM71.488 48.714v-2.857h2.714v2.857zM74.202 45.857V6h2.715v39.857zM71.488 5.857V3.143h2.571v2.714zM22.06 2.857V0h49.57v2.857zM19.63 5.857V3.286h2.715v2.571z"/><g fill="#f9f"><path d="M22.245 40.47V11.58h49v28.89z"/><path d="M25.245 43.692v-35h43.111v35z"/><path d="M25.245 43.692v-35h43.111v35z"/><path d="M28.134 45.692V5.247h37.222v40.445z"/></g><g fill="#f39"><path d="M28.182 14.73v-3.223h3.111v3.223zM42.404 11.619V8.396h3.111v3.223zM51.07 11.84V8.62h3.112v3.222zM62.404 17.73v-3.222h3.111v3.222zM39.737 23.063v-3.222h3.112v3.222zM42.515 31.84V28.62h3.111v3.222zM30.849 28.396v-3.222h3.11v3.222zM25.293 34.84V31.62h3.111v3.222zM36.849 40.063v-3.222h3.11v3.222zM28.626 43.174v-3.222h3.111v3.222z"/></g><path d="M57.732 48.904v-4.342h28.929v4.342z" fill="#999"/><path d="M55.232 45.991v-2.714h35.5v2.714zM83.947 21.491v-4.357h5.714v4.357z" fill="#999"/><path d="M81.018 25.42v-5.786h8.714v5.786z" fill="#999"/><path d="M78.232 27.777v-5.072h11.786v5.072z" fill="#999"/><path d="M63.375 30.777v-6.215h29.257v6.215z" fill="#999"/><path d="M61.518 31.705v-9.5h5.286v9.5z" fill="#999"/><path d="M59.732 32.277V18.92h4.286v13.357z" fill="#999"/><path d="M55.804 33.705V16.562h5.214v17.143zM52.232 42.705l.072-.571h2.214v1.428l-1.09-.355z" fill="#999"/><path d="M52.732 44.062l-.198-1.925.698-.86h39.429v2.857z" fill="#999"/><path d="M51.54 42.655V28.59h42.6v14.066z" fill="#999"/><path d="M49.746 43.317V28.6h2.914v14.717z"/><path d="M52.66 28.746V17.089h3.206v11.657z"/><path d="M55.72 17.09v-2.478h5.537v2.477z"/><path d="M60.966 19.938v-3.14h3.058v3.14zM64.026 23.229v-3.372h2.966v3.372z"/><path d="M66.503 25.686v-2.769H78.45v2.769z"/><path d="M78.16 23.063v-3.206h2.982v3.206z"/><path d="M81.02 19.857V17.09h2.968v2.768zM83.988 17.38v-2.768h5.828v2.768z"/><path d="M89.525 28.746V16.798h3.326v11.948z"/><path d="M92.73 43.17V28.31h2.914V43.17z"/><path d="M89.67 46.085V42.88h3.206v3.205zM52.68 46.153v-3h2.876v3zM55.556 48.653v-2.875h2.5v2.875zM86.125 48.955v-3.2h3.4v3.2zM58.125 51.755v-3.2h28v3.2zM61.09 37.205v-5.571h5.5v5.571zM81.018 37.205v-5.571h5.5v5.571z"/><path d="M61.09 34.92v-3.286h3.071v3.286zM81.018 34.92v-3.286h3.071v3.286z" fill="#fff"/><path d="M64.018 45.562V39.92h2.5v5.642zM72.804 45.562V39.92h2.5v5.642zM81.375 45.562V39.92h2.5v5.642z"/><path d="M64.018 45.777v-2.643H84.09v2.643z"/><path d="M55.62 43.287v-6.2h5.4v6.2zM86.82 43.287v-6.2h5.866v6.2z" fill="#f99"/><path d="M75.42 37.087v-2.534h2.666v2.534zM13.875 57.333v-8.875h3v8.875z"/><path d="M14 57.333v-3h8.625v3zM22.5 54.333v-5.875h2.75v5.875zM16.75 48.958v-2.75h5.75v2.75z"/><path d="M16.75 48.083v-3.75h2.75v3.75z"/></g></svg>